<mxfile host="app.diagrams.net" agent="Mozilla/5.0 (Windows NT 10.0; Win64; x64) AppleWebKit/537.36 (KHTML, like Gecko) Chrome/129.0.0.0 Safari/537.36" version="24.7.16">
  <diagram name="PÃ¡gina-1" id="cRvJWgjH9a_eANFPLsf2">
    <mxGraphModel dx="1195" dy="643" grid="1" gridSize="10" guides="1" tooltips="1" connect="1" arrows="1" fold="1" page="1" pageScale="1" pageWidth="827" pageHeight="1169" math="0" shadow="0">
      <root>
        <mxCell id="0" />
        <mxCell id="1" parent="0" />
        <mxCell id="HJ4UDJNiVAxJ64FodoB1-8" value="" style="shape=umlLifeline;perimeter=lifelinePerimeter;whiteSpace=wrap;html=1;container=1;dropTarget=0;collapsible=0;recursiveResize=0;outlineConnect=0;portConstraint=eastwest;newEdgeStyle={'curved':0,'rounded':0};participant=umlActor;" vertex="1" parent="1">
          <mxGeometry x="30" y="87" width="20.67" height="333" as="geometry" />
        </mxCell>
        <mxCell id="HJ4UDJNiVAxJ64FodoB1-9" value="FormularioCadastro" style="shape=umlLifeline;perimeter=lifelinePerimeter;whiteSpace=wrap;html=1;container=1;dropTarget=0;collapsible=0;recursiveResize=0;outlineConnect=0;portConstraint=eastwest;newEdgeStyle={'curved':0,'rounded':0};" vertex="1" parent="1">
          <mxGeometry x="149" y="40" width="120" height="380" as="geometry" />
        </mxCell>
        <mxCell id="HJ4UDJNiVAxJ64FodoB1-16" value="" style="html=1;points=[[0,0,0,0,5],[0,1,0,0,-5],[1,0,0,0,5],[1,1,0,0,-5]];perimeter=orthogonalPerimeter;outlineConnect=0;targetShapes=umlLifeline;portConstraint=eastwest;newEdgeStyle={'curved':0,'rounded':0};" vertex="1" parent="HJ4UDJNiVAxJ64FodoB1-9">
          <mxGeometry x="55" y="110" width="10" height="240" as="geometry" />
        </mxCell>
        <mxCell id="HJ4UDJNiVAxJ64FodoB1-19" value="" style="html=1;points=[[0,0,0,0,5],[0,1,0,0,-5],[1,0,0,0,5],[1,1,0,0,-5]];perimeter=orthogonalPerimeter;outlineConnect=0;targetShapes=umlLifeline;portConstraint=eastwest;newEdgeStyle={'curved':0,'rounded':0};" vertex="1" parent="HJ4UDJNiVAxJ64FodoB1-9">
          <mxGeometry x="55" y="50" width="10" height="40" as="geometry" />
        </mxCell>
        <mxCell id="HJ4UDJNiVAxJ64FodoB1-10" value="controller: UserController" style="shape=umlLifeline;perimeter=lifelinePerimeter;whiteSpace=wrap;html=1;container=1;dropTarget=0;collapsible=0;recursiveResize=0;outlineConnect=0;portConstraint=eastwest;newEdgeStyle={'curved':0,'rounded':0};" vertex="1" parent="1">
          <mxGeometry x="303" y="40" width="150" height="380" as="geometry" />
        </mxCell>
        <mxCell id="HJ4UDJNiVAxJ64FodoB1-24" value="" style="html=1;points=[[0,0,0,0,5],[0,1,0,0,-5],[1,0,0,0,5],[1,1,0,0,-5]];perimeter=orthogonalPerimeter;outlineConnect=0;targetShapes=umlLifeline;portConstraint=eastwest;newEdgeStyle={'curved':0,'rounded':0};" vertex="1" parent="HJ4UDJNiVAxJ64FodoB1-10">
          <mxGeometry x="69" y="110" width="10" height="230" as="geometry" />
        </mxCell>
        <mxCell id="HJ4UDJNiVAxJ64FodoB1-11" value="FormularioLogin" style="shape=umlLifeline;perimeter=lifelinePerimeter;whiteSpace=wrap;html=1;container=1;dropTarget=0;collapsible=0;recursiveResize=0;outlineConnect=0;portConstraint=eastwest;newEdgeStyle={'curved':0,'rounded':0};" vertex="1" parent="1">
          <mxGeometry x="520" y="40" width="90" height="380" as="geometry" />
        </mxCell>
        <mxCell id="HJ4UDJNiVAxJ64FodoB1-12" value="FormularioLogin" style="shape=umlLifeline;perimeter=lifelinePerimeter;whiteSpace=wrap;html=1;container=1;dropTarget=0;collapsible=0;recursiveResize=0;outlineConnect=0;portConstraint=eastwest;newEdgeStyle={'curved':0,'rounded':0};" vertex="1" parent="1">
          <mxGeometry x="680" y="40" width="90" height="380" as="geometry" />
        </mxCell>
        <mxCell id="HJ4UDJNiVAxJ64FodoB1-17" value="SubmeterCadastro (usuario)" style="edgeStyle=orthogonalEdgeStyle;rounded=0;orthogonalLoop=1;jettySize=auto;html=1;exitX=0.5;exitY=1;exitDx=0;exitDy=0;entryX=0.5;entryY=0;entryDx=0;entryDy=0;" edge="1" parent="1" source="HJ4UDJNiVAxJ64FodoB1-8" target="HJ4UDJNiVAxJ64FodoB1-9">
          <mxGeometry relative="1" as="geometry" />
        </mxCell>
        <mxCell id="HJ4UDJNiVAxJ64FodoB1-18" value="ValidarDados (usuario)" style="edgeStyle=orthogonalEdgeStyle;rounded=0;orthogonalLoop=1;jettySize=auto;html=1;exitX=0.5;exitY=1;exitDx=0;exitDy=0;entryX=0.5;entryY=0;entryDx=0;entryDy=0;" edge="1" parent="1" source="HJ4UDJNiVAxJ64FodoB1-9" target="HJ4UDJNiVAxJ64FodoB1-10">
          <mxGeometry relative="1" as="geometry" />
        </mxCell>
        <mxCell id="HJ4UDJNiVAxJ64FodoB1-20" value="SalvarDados (usuario)" style="edgeStyle=orthogonalEdgeStyle;rounded=0;orthogonalLoop=1;jettySize=auto;html=1;exitX=0.5;exitY=1;exitDx=0;exitDy=0;entryX=0.5;entryY=0;entryDx=0;entryDy=0;" edge="1" parent="1" source="HJ4UDJNiVAxJ64FodoB1-10" target="HJ4UDJNiVAxJ64FodoB1-11">
          <mxGeometry relative="1" as="geometry" />
        </mxCell>
        <mxCell id="HJ4UDJNiVAxJ64FodoB1-21" value="ConfirmarCadastro (usuario)" style="edgeStyle=orthogonalEdgeStyle;rounded=0;orthogonalLoop=1;jettySize=auto;html=1;exitX=0.5;exitY=1;exitDx=0;exitDy=0;entryX=0.5;entryY=0;entryDx=0;entryDy=0;" edge="1" parent="1" source="HJ4UDJNiVAxJ64FodoB1-11" target="HJ4UDJNiVAxJ64FodoB1-12">
          <mxGeometry relative="
